Van Halen
Madison Square Garden
New York, NY.
Mar. 1st. 2012.


Source: Samsung Camcorder model #HMX-H200>Mp4 to DVD via Freemake Video Converter 3.0.1.17>Jamtothis (Audio & video)
Section 305
Taper: JS1516 (ALL CREDIT GO'S TO HIM)

Video
ID : 224 (0xE0)
Format : MPEG Video
Format version : Version 2
Format profile : Main@Main
Format settings, BVOP : Yes
Format settings, Matrix : Default
Duration : 3mn 12s
Bit rate mode : Variable
Bit rate : 43.4 Mbps
Maximum bit rate : 9 000 Kbps
Width : 720 pixels
Height : 480 pixels
Display aspect ratio : 16:9
Frame rate : 29.970 fps
Standard : NTSC
Color space : YUV
Chroma subsampling : 4:2:0
Bit depth : 8 bits
Scan type : Progressive
Compression mode : Lossy
Bits/(Pixel*Frame) : 4.188
Stream size : 998 MiB (97%)

Audio
ID : 189 (0xBD)-128 (0x80)
Format : AC-3
Format/Info : Audio Coding 3
Mode extension : CM (complete main)
Muxing mode : DVD-Video
Duration : 3mn 12s
Bit rate mode : Constant
Bit rate : 256 Kbps
Channel(s) : 2 channels
Channel positions : Front: L R
Sampling rate : 48.0 KHz
Bit depth : 16 bits
Compression mode : Lossy
Stream size : 5.88 MiB (1%)


Set List: disc-1
1. Unchained
2. Runnin' With The Devil
3. She's The Woman
4. The Full Bug
5. Tattoo
6. Everybody Wants Some!!
7. Somebody Get Me a Doctor
8. China Town
9. Hear About it Later
10. (Oh!) Pretty Woman
11. Alex's solo
12. You Really Got Me
13. The Trouble With Never
14. Dance The Night Away

Set List: disc-2
1. I'll Wait
2. Hot For Teacher
3. Women In Love
4. Outta love Again
5. Beautiful Girls
6. Dave's Dogs
7. Ice Cream Man
8. Panama
9. Eddie's solo
10. Ain't Talkin' 'Bout Love
11. Jump


# MD5 checksums generated by MD5summer (http://www.md5summer.org)
# Generated 3/4/2012 6:30:19 PM

122ceaa819999e64e9e53ca3e6d64b9c *VIDEO_TS.BUP
122ceaa819999e64e9e53ca3e6d64b9c *VIDEO_TS.IFO
731c0fbf31c1acb6141bef5fe00dc32d *VIDEO_TS.VOB
46264d76f0af02d90242d24a6abfec9b *VTS_01_0.BUP
46264d76f0af02d90242d24a6abfec9b *VTS_01_0.IFO
79604257b8f8af0b61ce1e383b800abd *VTS_01_0.VOB
77b72ac1f171b8ea1ec478fb442ac4c7 *VTS_01_1.VOB
d93f78c588309fc0153d236bde712457 *VTS_01_2.VOB
897b9fb97f5613e8e3c39953a16958fb *VTS_01_3.VOB


# MD5 checksums generated by MD5summer (http://www.md5summer.org)
# Generated 3/4/2012 6:31:13 PM

3cfdd8866d04df242ba54e3cd2b6ccaa *VIDEO_TS.BUP
3cfdd8866d04df242ba54e3cd2b6ccaa *VIDEO_TS.IFO
5ad7b405821b9eca1f4f7c2b013316d7 *VIDEO_TS.VOB
753f9a27b8813bf63df4cc4bcb60e3d1 *VTS_01_0.BUP
753f9a27b8813bf63df4cc4bcb60e3d1 *VTS_01_0.IFO
1b4b25b37ea69e825defdb4874e2d631 *VTS_01_0.VOB
d64aec30dae6b9ccf2caad765680d3e2 *VTS_01_1.VOB
2bb8f18adb52851db6b15d41f5b2251a *VTS_01_2.VOB
3a0f6af77589d0ccc680eb86bab79d70 *VTS_01_3.VOB




Notes:

No menu, I'm lucky I figured out how to upload it :)
This is 1st time I've ever filmed a show, I think it came out pretty decent.I mostly filmed the stage & screen in the shot due to terrible seats, zoomed in once in a while, but avoided too much of that so that I could come up with least shaky & clearest video I could, in retrospect its to far away should have zoomed in more, Oh well. It might be missing the smallest bit of the begining of Ice cream man as that is when I switched memory cards. Do with it what you will, If anyone wishes to use this for a multi angle DVD I would be thrilled with any upgrade. Please,just don't sell it!!!!

Thank you to the VHlinks/Jamtothis site

JS1516

ALL CREDIT GO'S TO THE ORIGINAL FILMER OF THIS SHOW! (TAPER - JS1516)

I JUST PUT A MENU & CHAPTERS TO IT TO MAKE IT MORE PRESENTABLE!